<svg width="28" height="10" viewBox="0 0 28 10" fill="none" xmlns="http://www.w3.org/2000/svg">
<path d="M6.34553 0.272727H10.4279V1.54261H6.34553V0.272727ZM0.337003 1.54261V0.272727H3.87393L7.64098 7.73011H10.4279V9H6.89098L3.1282 1.54261H0.337003ZM14.7713 9.19176C14.4134 9.19176 14.0866 9.10511 13.7912 8.93182C13.4957 8.75568 13.2599 8.51989 13.0838 8.22443C12.9077 7.92614 12.8196 7.59943 12.8196 7.24432C12.8196 6.88352 12.9077 6.5554 13.0838 6.25994C13.2599 5.96449 13.4957 5.72869 13.7912 5.55256C14.0866 5.37642 14.4134 5.28835 14.7713 5.28835H15.6577V3.97585H14.7713C14.4134 3.97585 14.0866 3.8892 13.7912 3.71591C13.4957 3.53977 13.2599 3.3054 13.0838 3.01278C12.9077 2.71733 12.8196 2.3892 12.8196 2.02841C12.8196 1.67045 12.9077 1.34375 13.0838 1.0483C13.2599 0.752841 13.4957 0.518466 13.7912 0.34517C14.0866 0.169034 14.4134 0.0809655 14.7713 0.0809655C15.1293 0.0809655 15.456 0.169034 15.7514 0.34517C16.0469 0.518466 16.2827 0.752841 16.4588 1.0483C16.6378 1.34375 16.7273 1.67045 16.7273 2.02841V2.91051H18.0355V2.02841C18.0355 1.67045 18.1222 1.34375 18.2955 1.0483C18.4716 0.752841 18.7074 0.518466 19.0028 0.34517C19.2983 0.169034 19.6264 0.0809655 19.9872 0.0809655C20.3452 0.0809655 20.6719 0.169034 20.9673 0.34517C21.2628 0.518466 21.4972 0.752841 21.6705 1.0483C21.8466 1.34375 21.9347 1.67045 21.9347 2.02841C21.9347 2.3892 21.8466 2.71733 21.6705 3.01278C21.4943 3.3054 21.2585 3.53977 20.9631 3.71591C20.6705 3.8892 20.3452 3.97585 19.9872 3.97585H19.1051V5.28835H19.9872C20.3452 5.28835 20.6705 5.37642 20.9631 5.55256C21.2585 5.72869 21.4943 5.96449 21.6705 6.25994C21.8466 6.5554 21.9347 6.88352 21.9347 7.24432C21.9347 7.59943 21.8466 7.92614 21.6705 8.22443C21.4943 8.51989 21.2585 8.75568 20.9631 8.93182C20.6705 9.10511 20.3452 9.19176 19.9872 9.19176C19.6264 9.19176 19.2983 9.10511 19.0028 8.93182C18.7074 8.75568 18.4716 8.51989 18.2955 8.22443C18.1222 7.92614 18.0355 7.59943 18.0355 7.24432V6.35369H16.7273V7.24432C16.7273 7.59943 16.6378 7.92614 16.4588 8.22443C16.2827 8.51989 16.0469 8.75568 15.7514 8.93182C15.456 9.10511 15.1293 9.19176 14.7713 9.19176ZM14.7713 8.12642C14.9332 8.12642 15.081 8.08665 15.2145 8.0071C15.3509 7.92756 15.4588 7.82102 15.5384 7.6875C15.6179 7.55398 15.6577 7.40625 15.6577 7.24432V6.35369H14.7713C14.6094 6.35369 14.4616 6.39489 14.3281 6.47727C14.1946 6.55682 14.0881 6.66335 14.0085 6.79688C13.929 6.9304 13.8892 7.07955 13.8892 7.24432C13.8892 7.40625 13.9276 7.55398 14.0043 7.6875C14.0838 7.82102 14.1903 7.92756 14.3239 8.0071C14.4602 8.08665 14.6094 8.12642 14.7713 8.12642ZM14.7713 2.91051H15.6577V2.02841C15.6577 1.86364 15.6179 1.71591 15.5384 1.58523C15.4588 1.4517 15.3509 1.34517 15.2145 1.26562C15.081 1.18608 14.9332 1.14631 14.7713 1.14631C14.6094 1.14631 14.4616 1.18608 14.3281 1.26562C14.1946 1.34517 14.0881 1.4517 14.0085 1.58523C13.929 1.71591 13.8892 1.86364 13.8892 2.02841C13.8892 2.19034 13.9276 2.33949 14.0043 2.47585C14.0838 2.60938 14.1903 2.71591 14.3239 2.79545C14.4602 2.87216 14.6094 2.91051 14.7713 2.91051ZM19.1051 2.91051H19.9872C20.1491 2.91051 20.2969 2.87216 20.4304 2.79545C20.5639 2.71591 20.669 2.60938 20.7457 2.47585C20.8253 2.34233 20.8651 2.19318 20.8651 2.02841C20.8651 1.86364 20.8253 1.71591 20.7457 1.58523C20.669 1.4517 20.5639 1.34517 20.4304 1.26562C20.2969 1.18608 20.1491 1.14631 19.9872 1.14631C19.8224 1.14631 19.6733 1.18608 19.5398 1.26562C19.4063 1.34517 19.2997 1.4517 19.2202 1.58523C19.1435 1.71591 19.1051 1.86364 19.1051 2.02841V2.91051ZM19.9872 8.12642C20.1491 8.12642 20.2969 8.08665 20.4304 8.0071C20.5639 7.92756 20.669 7.82102 20.7457 7.6875C20.8253 7.55398 20.8651 7.40625 20.8651 7.24432C20.8651 7.07955 20.8253 6.9304 20.7457 6.79688C20.669 6.66335 20.5639 6.55682 20.4304 6.47727C20.2969 6.39489 20.1491 6.35369 19.9872 6.35369H19.1051V7.24432C19.1051 7.40625 19.1435 7.55398 19.2202 7.6875C19.2997 7.82102 19.4063 7.92756 19.5398 8.0071C19.6733 8.08665 19.8224 8.12642 19.9872 8.12642ZM16.7273 5.28835H18.0355V3.97585H16.7273V5.28835ZM27.5597 0.272727V9H25.9787V1.81108H25.9276L23.8864 3.11506V1.66619L26.0554 0.272727H27.5597Z" fill="#C8C8C8"/>
</svg>
